<svg id="Group_162" data-name="Group 162" xmlns="http://www.w3.org/2000/svg" width="44" height="44" viewBox="0 0 44 44">
  <g id="Hamburger_icon" data-name="Hamburger icon">
    <rect id="Hamburger_Icon_Background" data-name="Hamburger Icon Background" width="44" height="44" rx="11" fill="#fff" opacity="0.7"/>
  </g>
  <path id="Icon_ionic-ios-share-alt" data-name="Icon ionic-ios-share-alt" d="M4.163,12.569l6.7-6.451A.338.338,0,0,1,11.124,6c.209.01.474.161.474.391V9.626a.207.207,0,0,0,.171.2c6.657,1.051,9.461,6.183,10.453,11.51.038.21-.237.406-.365.239-2.429-3.152-5.385-5.21-10.059-5.249a.24.24,0,0,0-.2.235v3.177A.4.4,0,0,1,10.91,20L4.168,13.434A.548.548,0,0,1,4,13.023.667.667,0,0,1,4.163,12.569Z" transform="translate(8.887 7.681)" fill="#305f72"/>
</svg>
