<svg xmlns="http://www.w3.org/2000/svg" width="35.427" height="25.765" viewBox="0 0 35.427 25.765">
  <path id="Icon_awesome-readme" data-name="Icon awesome-readme" d="M32.493,3.27h-8.6A6.324,6.324,0,0,0,17.72,8.208,6.329,6.329,0,0,0,11.545,3.27H2.952A2.953,2.953,0,0,0,0,6.222V21.34a2.953,2.953,0,0,0,2.952,2.952H8.469c6.286,0,8.162,1.5,9.06,4.613a.2.2,0,0,0,.369,0c.9-3.112,2.78-4.613,9.06-4.613h5.517a2.953,2.953,0,0,0,2.952-2.952V6.228A2.958,2.958,0,0,0,32.493,3.27ZM14.884,19.593a.214.214,0,0,1-.215.215H4.81a.214.214,0,0,1-.215-.215V18.185a.214.214,0,0,1,.215-.215h9.866a.214.214,0,0,1,.215.215v1.408Zm0-3.746a.214.214,0,0,1-.215.215H4.81a.214.214,0,0,1-.215-.215V14.439a.214.214,0,0,1,.215-.215h9.866a.214.214,0,0,1,.215.215v1.408Zm0-3.746a.214.214,0,0,1-.215.215H4.81a.214.214,0,0,1-.215-.215V10.693a.214.214,0,0,1,.215-.215h9.866a.214.214,0,0,1,.215.215V12.1Zm15.948,7.485a.214.214,0,0,1-.215.215H20.758a.214.214,0,0,1-.215-.215V18.179a.214.214,0,0,1,.215-.215h9.866a.214.214,0,0,1,.215.215v1.408Zm0-3.746a.214.214,0,0,1-.215.215H20.758a.214.214,0,0,1-.215-.215V14.433a.214.214,0,0,1,.215-.215h9.866a.214.214,0,0,1,.215.215v1.408Zm0-3.746a.214.214,0,0,1-.215.215H20.758a.214.214,0,0,1-.215-.215v-1.4a.214.214,0,0,1,.215-.215h9.866a.214.214,0,0,1,.215.215v1.4Z" transform="translate(0 -3.27)" fill="#305f72"/>
</svg>
